<?xml version="1.0" encoding="UTF-8" standalone="no"?>
<!-- Created with Inkscape (http://www.inkscape.org/) -->

<svg
   width="297mm"
   height="210mm"
   viewBox="0 0 297 210"
   version="1.1"
   id="svg1"
   inkscape:version="1.3.2 (091e20ef0f, 2023-11-25)"
   sodipodi:docname="logo.svg"
   xmlns:inkscape="http://www.inkscape.org/namespaces/inkscape"
   xmlns:sodipodi="http://sodipodi.sourceforge.net/DTD/sodipodi-0.dtd"
   xmlns="http://www.w3.org/2000/svg"
   xmlns:svg="http://www.w3.org/2000/svg">
  <sodipodi:namedview
     id="namedview1"
     pagecolor="#ffffff"
     bordercolor="#000000"
     borderopacity="0.25"
     inkscape:showpageshadow="2"
     inkscape:pageopacity="0.0"
     inkscape:pagecheckerboard="0"
     inkscape:deskcolor="#d1d1d1"
     inkscape:document-units="mm"
     inkscape:zoom="0.73049944"
     inkscape:cx="676.24966"
     inkscape:cy="409.30901"
     inkscape:window-width="1920"
     inkscape:window-height="1024"
     inkscape:window-x="1920"
     inkscape:window-y="28"
     inkscape:window-maximized="1"
     inkscape:current-layer="layer1" />
  <defs
     id="defs1" />
  <g
     inkscape:label="Capa 1"
     inkscape:groupmode="layer"
     id="layer1">
    <g
       id="g6"
       inkscape:export-filename="logo.png"
       inkscape:export-xdpi="16.510002"
       inkscape:export-ydpi="16.510002">
      <g
         id="g5">
        <g
           id="g3">
          <path
             id="path21"
             d="m 206.35144,125.46571 c -0.96499,9.06031 -4.2854,26.99028 -18.09771,43.86302 -5.83979,7.13132 -12.09812,12.29812 -17.40163,15.94765 7.73163,-2.60753 31.53518,-11.72375 45.2448,-35.55499 5.44382,-9.46439 7.71588,-18.50182 8.69942,-25.25194 -6.14778,0.33294 -12.29632,0.66332 -18.44488,0.99626"
             style="fill:#93aee0;fill-opacity:1;fill-rule:nonzero;stroke:none;stroke-width:0.0254145" />
          <path
             id="path21-2"
             d="m 203.54673,102.08478 c 3.07982,8.57527 7.90492,26.16012 2.82606,47.36566 -2.14838,8.96344 -5.52957,16.34112 -8.71258,21.93707 5.82253,-5.71624 23.2742,-24.29456 25.22821,-51.71834 0.77527,-10.89077 -1.11816,-20.015035 -3.17453,-26.519095 -5.38822,2.97878 -10.77824,5.95559 -16.16716,8.934705"
             style="fill:#93aee0;fill-opacity:1;fill-rule:nonzero;stroke:none;stroke-width:0.0254145" />
          <path
             id="path21-5"
             d="m 203.48231,101.7517 c 1.91662,8.90771 4.36953,26.97681 -3.4739,47.32257 -3.31691,8.59981 -7.64571,15.46451 -11.54202,20.58945 6.5285,-4.89448 26.28762,-20.99702 31.85754,-47.92021 2.21124,-10.69207 1.5433,-19.98676 0.36672,-26.705915 -5.73536,2.238689 -11.47223,4.47518 -17.20834,6.714105"
             style="fill:#93aee0;fill-opacity:1;fill-rule:nonzero;stroke:none;stroke-width:0.0254145" />
        </g>
        <path
           id="path19"
           d="m 181.15564,139.84274 c -3.29551,2.58466 -6.55696,5.21761 -9.94042,7.68792 -3.43579,2.50841 -6.99891,4.83893 -10.80932,6.74248 -0.38021,0.18806 -0.76269,0.37358 -1.14543,0.55912 -3.1438,1.89084 -5.79428,3.1514 -7.44572,3.93672 -37.44534,17.80799 -79.797222,-10.17346 -82.158996,-11.78475 0.01067,0.0203 0.0216,0.0407 0.0328,0.0584 L 58.310686,166.00698 81.404675,189.10121 100.3675,177.7231 c 5.82834,3.31152 12.03051,5.8784 18.5064,7.65996 l 0.12097,0.48541 5.2438,20.97466 h 32.65978 l 5.36018,-21.43974 -0.005,-0.008 c 0.003,-0.003 0.007,-0.005 0.009,-0.0107 l 0.001,-0.003 c 0.001,0 0.003,0 0.004,-0.003 2.927,-2.90488 22.87032,-23.35345 27.21164,-52.3286 -2.65353,2.41439 -5.49895,4.57463 -8.32377,6.79079"
           style="fill:#273173;fill-opacity:1;fill-rule:nonzero;stroke:none;stroke-width:0.0254145" />
      </g>
      <g
         id="g2"
         transform="translate(9.5250008,5.2916667)">
        <g
           id="g1">
          <path
             id="path2"
             d="m 188.49821,107.69939 c -2.53267,0 -5.28009,-0.55175 -7.50926,-1.61003 L 122.85792,78.324612 c -2.6235,-1.24959 -4.07591,-3.006132 -4.07591,-4.909192 0,-1.542207 0.99068,-2.904825 2.71344,-3.726582 l 60.8557,-29.070855 c 3.14135,-1.497415 8.66926,-1.2161 12.57627,0.653051 l 58.13125,27.765171 c 2.63439,1.260892 4.07571,3.006132 4.07571,4.920076 0,1.542207 -0.99046,2.904825 -2.71351,3.726582 L 193.5648,106.74242 c -1.3622,0.64174 -3.15223,0.95697 -5.06659,0.95697"
             style="fill:#ffd9a0;fill-opacity:1;fill-rule:evenodd;stroke:none;stroke-width:0.00418623" />
        </g>
        <path
           id="path4"
           d="m 188.49821,131.35484 c -2.53267,0 -5.28009,-0.55175 -7.50926,-1.61003 l -58.13103,-27.76475 c -2.6235,-1.26089 -4.07591,-3.006124 -4.07591,-4.920472 0,-1.542201 0.99068,-2.904812 2.71344,-3.726569 v 0 l 15.93176,-7.611388 c 0.51804,-0.247406 1.11441,-0.247406 1.63246,0 l 38.56271,18.431079 c 6.09097,2.90525 14.02848,3.17526 19.30899,0.65306 l 39.93621,-19.072417 c 0.51784,-0.247825 1.11438,-0.247825 1.63263,0 l 14.55804,6.958339 c 2.63439,1.260894 4.07571,3.006115 4.07571,4.919633 0,1.542621 -0.99046,2.905225 -2.71351,3.726985 l -60.85565,29.04825 c -1.3622,0.65305 -3.15223,0.96828 -5.06659,0.96828"
           style="fill:#ffc298;fill-opacity:1;fill-rule:evenodd;stroke:none;stroke-width:0.00418623" />
        <path
           id="path5"
           d="m 188.49821,154.9994 c -2.53267,0 -5.28009,-0.55175 -7.50926,-1.61003 l -58.13103,-27.76475 c -2.6235,-1.25 -4.07591,-2.99524 -4.07591,-4.90919 0,-1.5422 0.99068,-2.90482 2.71344,-3.727 v 0 l 15.93176,-7.61098 c 0.51804,-0.24783 1.11441,-0.24783 1.63246,0 l 38.56271,18.41983 c 6.09097,2.90524 14.02848,3.17483 19.30899,0.65305 l 39.93621,-19.07288 c 0.51784,-0.24783 1.11438,-0.24783 1.63263,0 l 14.55804,6.95835 c 2.63439,1.26089 4.07571,3.00613 4.07571,4.92007 0,1.54263 -0.99046,2.90483 -2.71351,3.72659 l -60.85565,29.05996 c -1.3622,0.65305 -3.15223,0.95698 -5.06659,0.95698"
           style="fill:#ffa7a7;fill-opacity:1;fill-rule:evenodd;stroke:none;stroke-width:0.00418623" />
      </g>
      <g
         id="g4">
        <path
           id="path18"
           d="m 62.01486,128.52563 c 0.004,0.005 0.0093,0.008 0.014,0.0133 1.86e-4,0 7.2e-4,0.003 7.2e-4,0.003 3.651307,3.68002 35.011631,34.23343 76.17919,26.91912 0.75965,-0.13469 1.50582,-0.28464 2.2464,-0.43967 0.32912,-0.0712 0.66027,-0.13724 0.98583,-0.21094 -5.64051,-0.19823 -14.76791,-1.2758 -24.50754,-6.18336 C 98.822771,139.49786 91.20425,123.47904 88.641436,118.08861 70.834461,80.645306 98.816424,38.291903 100.42593,35.930887 c -0.0193,0.01013 -0.0392,0.02033 -0.0587,0.03304 L 81.404422,24.585817 58.310446,47.680051 69.688301,66.641872 c -3.311267,5.830105 -5.878401,12.031264 -7.659708,18.5069 l -0.48464,0.121986 -20.976443,5.243032 v 32.66028 l 21.440763,5.35993 0.0067,-0.008"
           style="fill:#3442a0;fill-opacity:1;fill-rule:nonzero;stroke:none;stroke-width:0.0254145" />
        <path
           id="path20"
           d="m 91.95121,104.48343 c 0.134947,0.75989 0.284893,1.50454 0.440693,2.24664 0.06933,0.32786 0.136974,0.66079 0.210174,0.98609 0.198493,-5.64203 1.2748,-14.765873 6.180827,-24.502197 9.126626,-18.115515 25.150276,-25.734807 30.539686,-28.299138 37.4461,-17.805458 79.79773,10.175999 82.15925,11.784742 -0.0107,-0.01779 -0.0216,-0.03812 -0.0328,-0.05845 L 222.82613,47.679292 199.73293,24.58506 180.77008,35.963169 c -5.82883,-3.31152 -12.03075,-5.878394 -18.50638,-7.659955 l -0.12093,-0.485419 -5.2443,-20.9746572 h -32.6598 l -5.35994,21.4397442 0.006,0.0051 c -0.003,0.0051 -0.007,0.0076 -0.01,0.01013 l -9.4e-4,0.0051 c -0.001,0 -0.003,0 -0.004,0 -3.67877,3.652076 -34.233451,35.013673 -26.918623,76.180218"
           style="fill:#4657b0;fill-opacity:1;fill-rule:nonzero;stroke:none;stroke-width:0.0254145" />
        <path
           id="path22"
           d="m 171.02081,62.178311 c 8.07143,4.950764 13.60063,10.844406 17.14569,15.396157 2.91455,-1.651948 7.46987,-3.682573 13.29691,-4.198489 2.05656,-0.182985 3.93978,-0.147405 5.59858,0 -3.87876,-2.99892 -8.87783,-6.277402 -15.04619,-9.098421 -12.23026,-5.59375 -23.47445,-6.833983 -30.79282,-6.999177 3.00196,1.191943 6.33305,2.77273 9.79783,4.89993"
           style="fill:#93aee0;fill-opacity:1;fill-rule:nonzero;stroke:none;stroke-width:0.0254145" />
      </g>
    </g>
  </g>
</svg>
